<?xml version="1.0" encoding="iso-8859-1"?>
<!-- Generator: Adobe Illustrator 19.0.0, SVG Export Plug-In . SVG Version: 6.00 Build 0)  -->
<svg version="1.1" id="Capa_1" xmlns="http://www.w3.org/2000/svg" xmlns:xlink="http://www.w3.org/1999/xlink" x="0px" y="0px"
	 viewBox="0 0 512.002 512.002" style="enable-background:new 0 0 512.002 512.002;" xml:space="preserve">
<g>
	<g>
		<path d="M495.948,338.569l-6.412-74.721c-2.036-23.725-17.16-44.372-38.915-53.578l-4.549-13.175
			c-1.371-3.969-5.699-6.076-9.669-4.706c-3.969,1.371-6.077,5.7-4.706,9.669l5.697,16.501c0.742,2.151,2.397,3.89,4.542,4.649
			c18.069,6.381,30.81,22.855,32.448,41.941l5.926,69.057c-0.185-0.003-0.367-0.014-0.553-0.014h-47.433v0.657
			c-12.138-12.061-28.847-19.527-47.269-19.527c-37.001,0-67.102,30.102-67.102,67.102c0,0.353,0.021,0.7,0.026,1.051h-69.575
			c-4.199,0-7.604,3.405-7.604,7.604s3.405,7.604,7.604,7.604h71.551c7.288,29.169,33.706,50.843,65.1,50.843
			s57.811-21.674,65.099-50.843h28.955c17.716,0,32.611-14.015,32.891-31.729C512.189,354.859,505.678,344.244,495.948,338.569z
			 M385.053,434.319c-28.615,0-51.895-23.279-51.895-51.895s23.279-51.894,51.895-51.894c28.614,0,51.894,23.279,51.894,51.894
			S413.668,434.319,385.053,434.319z M479.756,383.476h-27.628c0.005-0.351,0.026-0.699,0.026-1.051
			c0-12.001-3.182-23.267-8.724-33.024h36.326c9.394,0,17.038,7.643,17.038,17.038C496.794,375.833,489.151,383.476,479.756,383.476
			z"/>
	</g>
</g>
<g>
	<g>
		<path d="M87.701,260.181c-14.815,0-26.867,12.053-26.867,26.867c0,14.815,12.053,26.867,26.867,26.867
			c14.815,0,26.867-12.053,26.867-26.867C114.568,272.233,102.516,260.181,87.701,260.181z M87.701,298.707
			c-6.429,0-11.659-5.231-11.659-11.659s5.231-11.659,11.659-11.659s11.659,5.231,11.659,11.659S94.13,298.707,87.701,298.707z"/>
	</g>
</g>
<g>
	<g>
		<path d="M413.426,231.743l-13.553-53.674c-3.618-14.333-16.471-24.343-31.254-24.343H237.022
			c-11.334,0-21.201,7.274-24.553,18.102l-18.425,59.529c-0.715,2.308-0.29,4.817,1.144,6.76c1.434,1.944,3.705,3.091,6.121,3.091
			h204.745v-0.001c2.345,0,4.558-1.082,5.999-2.931C413.493,236.428,414,234.016,413.426,231.743z M277.8,226h-66.178l15.375-49.676
			c1.369-4.42,5.397-7.391,10.025-7.391H277.8V226z M353.84,226h-60.832v-57.067h60.832V226z M369.048,225.999V168.95
			c7.626,0.191,14.204,5.41,16.081,12.841l11.163,44.208H369.048z"/>
	</g>
</g>
<g>
	<g>
		<path d="M433.894,161.818l-3.267-9.461c-6.002-17.385-22.37-29.05-40.761-29.05h-76.502l-7.134-54.219
			c-0.498-3.784-3.723-6.612-7.539-6.612h-34.686c-3.816,0-7.041,2.829-7.539,6.612l-7.134,54.219h-12.31
			c-24.601,0-46.334,16.023-53.609,39.524l-14.258,46.062l-37.848,2.934c-55.193,4.277-100.002,45.419-108.968,100.046
			l-4.197,25.572c-10.96,5.354-18.456,16.74-18.132,29.809c0.438,17.598,15.295,31.429,32.898,31.429h34.138
			c7.288,29.169,33.706,50.843,65.1,50.843s57.811-21.674,65.099-50.843h15.669c4.199,0,7.604-3.405,7.604-7.604
			c0-4.199-3.405-7.604-7.604-7.604h-13.693c0.008-0.349,0.028-0.695,0.028-1.048c0-37-30.102-67.102-67.102-67.102
			c-18.425,0-35.136,7.468-47.274,19.531v-0.662H34.089l3.259-19.854c7.827-47.693,46.949-83.612,95.136-87.347l42.997-3.333
			c3.109-0.241,5.755-2.354,6.676-5.333l15.785-50.996c5.302-17.132,21.146-28.813,39.08-28.813h18.98h50.693h83.171
			c11.906,0,22.502,7.551,26.387,18.805l3.266,9.46c1.371,3.969,5.699,6.077,9.669,4.706
			C433.157,170.116,435.264,165.788,433.894,161.818z M132.148,330.53c28.614,0,51.894,23.279,51.894,51.894
			s-23.28,51.895-51.894,51.895c-28.615,0-51.894-23.279-51.894-51.895S103.532,330.53,132.148,330.53z M73.77,349.4
			c-5.542,9.758-8.724,21.023-8.724,33.024c0,0.353,0.021,0.7,0.026,1.051H32.248c-9.395,0-17.038-7.643-17.038-17.038
			c0-9.394,7.643-17.038,17.038-17.038H73.77z M264.673,123.308l6.002-45.623h21.349l6.002,45.623H264.673z"/>
	</g>
</g>
<g>
	<g>
		<path d="M132.148,348.154c-18.896,0-34.271,15.373-34.271,34.271c0,18.897,15.374,34.271,34.271,34.271
			s34.271-15.373,34.271-34.271C166.418,363.528,151.044,348.154,132.148,348.154z M132.148,401.488
			c-10.511,0-19.063-8.551-19.063-19.063s8.552-19.063,19.063-19.063s19.063,8.551,19.063,19.063S142.658,401.488,132.148,401.488z"
			/>
	</g>
</g>
<g>
	<g>
		<path d="M385.053,348.154c-18.896,0-34.271,15.373-34.271,34.271c0,18.897,15.374,34.271,34.271,34.271
			c18.896,0,34.271-15.373,34.271-34.271C419.324,363.528,403.95,348.154,385.053,348.154z M385.053,401.488
			c-10.511,0-19.063-8.551-19.063-19.063s8.552-19.063,19.063-19.063c10.511,0,19.063,8.551,19.063,19.063
			S395.564,401.488,385.053,401.488z"/>
	</g>
</g>
<g>
	<g>
		<path d="M301.626,348.387h-87.192c-4.199,0-7.604,3.405-7.604,7.604s3.405,7.604,7.604,7.604h87.192
			c4.199,0,7.604-3.405,7.604-7.604S305.825,348.387,301.626,348.387z"/>
	</g>
</g>
<g>
	<g>
		<path d="M456.855,268.131c-4.199,0-7.604,3.405-7.604,7.604v24.332c0,4.199,3.405,7.604,7.604,7.604s7.604-3.405,7.604-7.604
			v-24.332C464.459,271.536,461.054,268.131,456.855,268.131z"/>
	</g>
</g>
<g>
	<g>
		<rect x="217.962" y="264.022" width="23.43" height="23.43"/>
	</g>
</g>
<g>
	<g>
		<rect x="241.382" y="287.442" width="23.43" height="23.43"/>
	</g>
</g>
<g>
	<g>
		<rect x="264.813" y="264.022" width="23.43" height="23.43"/>
	</g>
</g>
<g>
	<g>
		<rect x="288.233" y="287.442" width="23.43" height="23.43"/>
	</g>
</g>
<g>
	<g>
		<rect x="311.653" y="264.022" width="23.43" height="23.43"/>
	</g>
</g>
<g>
</g>
<g>
</g>
<g>
</g>
<g>
</g>
<g>
</g>
<g>
</g>
<g>
</g>
<g>
</g>
<g>
</g>
<g>
</g>
<g>
</g>
<g>
</g>
<g>
</g>
<g>
</g>
<g>
</g>
</svg>
