<svg xmlns="http://www.w3.org/2000/svg" style="display:none"><symbol id="airplane" viewBox="0 0 300 300"><path d="M149.997 0C67.158 0 .003 67.161.003 149.997S67.158 300 149.997 300s150-67.163 150-150.003S232.837 0 149.997 0zm72.981 99.461l-32.435 30.711 20.562 82.844-12.27 12.27-39.262-64.028-.905-.905-40.385 38.24c-.228.231-.485.405-.718.622l-1.297 29.481-44.965-44.962 29.471-1.294c.218-.239.394-.493.625-.724l38.24-40.387-.325-.329-64.601-39.832 12.27-12.27 82.471 20.946 31.079-32.827c6.201-6.201 16.251-6.199 22.447 0 6.197 6.198 6.197 16.246-.002 22.444z"/></symbol><symbol id="camera" viewBox="0 0 512.002 512.002"><path d="M469.499 106.416h-85.875l-36.317-52.752a9.996 9.996 0 0 0-8.236-4.33h-166.14a9.997 9.997 0 0 0-8.236 4.33l-36.32 52.752h-28.129V76.424c0-5.521-4.478-10-10-10H42.501c-5.522 0-10 4.479-10 10v31.192C13.877 112.125 0 128.927 0 148.918v254.996c0 23.438 19.065 42.504 42.501 42.504h166.692c23.235 10.436 48.979 16.25 76.057 16.25s52.823-5.814 76.058-16.25h108.191c23.437 0 42.503-19.066 42.503-42.504V148.918c0-23.436-19.066-42.502-42.503-42.502zM178.188 69.334h155.628l24.678 35.846C336 95.523 311.24 90.164 285.25 90.164c-27.08 0-52.825 5.814-76.061 16.252h-56.532l25.531-37.082zM52.501 86.424h27.746v19.992H52.501V86.424zm-10 339.994C30.094 426.418 20 416.322 20 403.914V148.918c0-12.408 10.094-22.502 22.501-22.502h132.476c-46.046 33.941-75.978 88.537-75.978 150 0 61.464 29.934 116.061 75.981 150.002H42.501zm242.749 16.25c-91.671 0-166.251-74.58-166.251-166.252s74.58-166.252 166.251-166.252c91.673 0 166.254 74.58 166.254 166.252S376.923 442.668 285.25 442.668zm206.753-38.754h-.001c0 12.408-10.095 22.504-22.503 22.504h-73.977c46.048-33.941 75.982-88.538 75.982-150.002 0-61.463-29.933-116.059-75.979-150H469.5c12.408 0 22.503 10.094 22.503 22.502v254.996z"/><path d="M75.867 388.273H58.141v-45.902c0-5.523-4.478-10-10-10s-10 4.477-10 10v55.902c0 5.523 4.478 10 10 10h27.727c5.522 0 10-4.477 10-10-.001-5.521-4.478-10-10.001-10zM48.141 304.554c-5.522 0-10 4.477-10 10v.473c0 5.522 4.477 10 10 10 5.522 0 10-4.479 10-10v-.473c0-5.523-4.478-10-10-10zM285.25 130.217c-80.613 0-146.197 65.584-146.197 146.199s65.584 146.201 146.197 146.201c80.614 0 146.198-65.586 146.198-146.201S365.864 130.217 285.25 130.217zm0 272.4c-69.585 0-126.197-56.613-126.197-126.201 0-69.586 56.612-126.199 126.197-126.199 69.586 0 126.198 56.613 126.198 126.199 0 69.588-56.612 126.201-126.198 126.201z"/><path d="M374.064 210.359c-14.021-18.824-33.209-32.488-55.488-39.516-5.266-1.658-10.884 1.262-12.545 6.529-1.661 5.267 1.263 10.885 6.529 12.545 37.903 11.953 63.369 46.715 63.369 86.498 0 5.521 4.478 10 10 10s10-4.479 10-10c.001-24.011-7.56-46.852-21.865-66.056zM286.37 165.74l-1.12-.004c-5.522 0-10 4.477-10 10 0 5.521 4.478 10 10 10l.948.004h.088c5.482 0 9.95-4.42 9.998-9.914.047-5.521-4.391-10.037-9.914-10.086zM85.867 140.803c-16.542 0-30 13.459-30 30.002 0 16.541 13.458 29.998 30 29.998 16.543 0 30.001-13.457 30.001-29.998 0-16.543-13.458-30.002-30.001-30.002zm0 40c-5.514 0-10-4.484-10-9.998 0-5.516 4.486-10.002 10-10.002 5.515 0 10.001 4.486 10.001 10.002 0 5.513-4.486 9.998-10.001 9.998z"/></symbol><symbol id="taxi" viewBox="0 0 512.002 512.002"><path d="M495.948 338.569l-6.412-74.721c-2.036-23.725-17.16-44.372-38.915-53.578l-4.549-13.175a7.605 7.605 0 0 0-14.375 4.963l5.697 16.501c.742 2.151 2.397 3.89 4.542 4.649 18.069 6.381 30.81 22.855 32.448 41.941l5.926 69.057c-.185-.003-.367-.014-.553-.014h-47.433v.657c-12.138-12.061-28.847-19.527-47.269-19.527-37.001 0-67.102 30.102-67.102 67.102 0 .353.021.7.026 1.051h-69.575a7.605 7.605 0 0 0 0 15.208h71.551c7.288 29.169 33.706 50.843 65.1 50.843s57.811-21.674 65.099-50.843h28.955c17.716 0 32.611-14.015 32.891-31.729.189-12.095-6.322-22.71-16.052-28.385zm-110.895 95.75c-28.615 0-51.895-23.279-51.895-51.895s23.279-51.894 51.895-51.894c28.614 0 51.894 23.279 51.894 51.894s-23.279 51.895-51.894 51.895zm94.703-50.843h-27.628c.005-.351.026-.699.026-1.051a66.661 66.661 0 0 0-8.724-33.024h36.326c9.394 0 17.038 7.643 17.038 17.038 0 9.394-7.643 17.037-17.038 17.037zM87.701 260.181c-14.815 0-26.867 12.053-26.867 26.867 0 14.815 12.053 26.867 26.867 26.867 14.815 0 26.867-12.053 26.867-26.867 0-14.815-12.052-26.867-26.867-26.867zm0 38.526c-6.429 0-11.659-5.231-11.659-11.659s5.231-11.659 11.659-11.659 11.659 5.231 11.659 11.659-5.23 11.659-11.659 11.659z"/><path d="M413.426 231.743l-13.553-53.674a32.2 32.2 0 0 0-31.254-24.343H237.022c-11.334 0-21.201 7.274-24.553 18.102l-18.425 59.529a7.605 7.605 0 0 0 7.265 9.851h204.745v-.001a7.603 7.603 0 0 0 7.372-9.464zM277.8 226h-66.178l15.375-49.676a10.446 10.446 0 0 1 10.025-7.391H277.8V226zm76.04 0h-60.832v-57.067h60.832V226zm15.208-.001V168.95a17.003 17.003 0 0 1 16.081 12.841l11.163 44.208h-27.244z"/><path d="M433.894 161.818l-3.267-9.461c-6.002-17.385-22.37-29.05-40.761-29.05h-76.502l-7.134-54.219a7.604 7.604 0 0 0-7.539-6.612h-34.686a7.605 7.605 0 0 0-7.539 6.612l-7.134 54.219h-12.31c-24.601 0-46.334 16.023-53.609 39.524l-14.258 46.062-37.848 2.934c-55.193 4.277-100.002 45.419-108.968 100.046l-4.197 25.572C7.182 342.799-.314 354.185.01 367.254c.438 17.598 15.295 31.429 32.898 31.429h34.138c7.288 29.169 33.706 50.843 65.1 50.843s57.811-21.674 65.099-50.843h15.669a7.605 7.605 0 0 0 0-15.208h-13.693c.008-.349.028-.695.028-1.048 0-37-30.102-67.102-67.102-67.102-18.425 0-35.136 7.468-47.274 19.531v-.662H34.089l3.259-19.854c7.827-47.693 46.949-83.612 95.136-87.347l42.997-3.333a7.6 7.6 0 0 0 6.676-5.333l15.785-50.996c5.302-17.132 21.146-28.813 39.08-28.813h152.844a27.915 27.915 0 0 1 26.387 18.805l3.266 9.46a7.604 7.604 0 1 0 14.375-4.965zM132.148 330.53c28.614 0 51.894 23.279 51.894 51.894s-23.28 51.895-51.894 51.895c-28.615 0-51.894-23.279-51.894-51.895s23.278-51.894 51.894-51.894zM73.77 349.4a66.664 66.664 0 0 0-8.724 33.024c0 .353.021.7.026 1.051H32.248c-9.395 0-17.038-7.643-17.038-17.038 0-9.394 7.643-17.038 17.038-17.038H73.77zm190.903-226.092l6.002-45.623h21.349l6.002 45.623h-33.353z"/><path d="M132.148 348.154c-18.896 0-34.271 15.373-34.271 34.271 0 18.897 15.374 34.271 34.271 34.271s34.271-15.373 34.271-34.271c-.001-18.897-15.375-34.271-34.271-34.271zm0 53.334c-10.511 0-19.063-8.551-19.063-19.063s8.552-19.063 19.063-19.063 19.063 8.551 19.063 19.063-8.553 19.063-19.063 19.063zM385.053 348.154c-18.896 0-34.271 15.373-34.271 34.271 0 18.897 15.374 34.271 34.271 34.271 18.896 0 34.271-15.373 34.271-34.271 0-18.897-15.374-34.271-34.271-34.271zm0 53.334c-10.511 0-19.063-8.551-19.063-19.063s8.552-19.063 19.063-19.063 19.063 8.551 19.063 19.063-8.552 19.063-19.063 19.063zM301.626 348.387h-87.192a7.605 7.605 0 0 0 0 15.208h87.192a7.605 7.605 0 0 0 0-15.208zM456.855 268.131a7.605 7.605 0 0 0-7.604 7.604v24.332a7.605 7.605 0 0 0 15.208 0v-24.332a7.605 7.605 0 0 0-7.604-7.604zM217.962 264.022h23.43v23.43h-23.43z"/><path d="M241.382 287.442h23.43v23.43h-23.43zM264.813 264.022h23.43v23.43h-23.43z"/><path d="M288.233 287.442h23.43v23.43h-23.43z"/><path d="M311.653 264.022h23.43v23.43h-23.43z"/></symbol><symbol id="time" viewBox="0 0 60 60"><path d="M52.179 42.429l-5.596 8.04-3.949-3.241a1 1 0 0 0-1.407.138.998.998 0 0 0 .139 1.407l4.786 3.929a.998.998 0 0 0 1.455-.201l6.214-8.929a1 1 0 0 0-1.642-1.143zM31 26.021V15.879a1 1 0 1 0-2 0v10.142A3.998 3.998 0 0 0 26.104 29H19a1 1 0 1 0 0 2h7.18c.488 1.658 2.006 2.879 3.82 2.879 2.206 0 4-1.794 4-4 0-1.859-1.28-3.411-3-3.858zm-1 5.858c-1.103 0-2-.897-2-2s.897-2 2-2 2 .897 2 2-.897 2-2 2zM30 9.879a1 1 0 0 0 1-1v-1a1 1 0 1 0-2 0v1a1 1 0 0 0 1 1zM30 49.879a1 1 0 0 0-1 1v1a1 1 0 1 0 2 0v-1a1 1 0 0 0-1-1zM51 30.879h1a1 1 0 1 0 0-2h-1a1 1 0 1 0 0 2zM9 28.879H8a1 1 0 1 0 0 2h1a1 1 0 1 0 0-2zM44.849 16.029a.997.997 0 0 0 .707-.293l.707-.707a.999.999 0 1 0-1.414-1.414l-.707.707a.999.999 0 0 0 .707 1.707zM14.444 44.021l-.707.707a.999.999 0 1 0 1.414 1.414l.707-.707a.999.999 0 1 0-1.414-1.414zM15.151 13.615a.999.999 0 1 0-1.414 1.414l.707.707a.997.997 0 0 0 1.414 0 .999.999 0 0 0 0-1.414l-.707-.707z"/><path d="M60 30C60 13.458 46.542 0 30 0S0 13.458 0 30s13.458 30 30 30c3.55 0 7.028-.627 10.35-1.85A12.909 12.909 0 0 0 47 60c7.168 0 13-5.832 13-13 0-2.432-.683-4.701-1.85-6.65A29.853 29.853 0 0 0 60 30zM38.375 56.719A27.89 27.89 0 0 1 30 58C14.561 58 2 45.439 2 30S14.561 2 30 2s28 12.561 28 28c0 2.857-.43 5.667-1.281 8.375-.078-.088-.167-.165-.247-.251a12.854 12.854 0 0 0-.985-.949 14.158 14.158 0 0 0-1.044-.817c-.163-.114-.33-.221-.499-.328a12.775 12.775 0 0 0-.604-.367c-.178-.1-.361-.19-.544-.281-.204-.102-.407-.206-.616-.297-.205-.09-.417-.166-.628-.245-.197-.074-.391-.153-.591-.217-.243-.078-.494-.139-.743-.203-.178-.045-.352-.099-.532-.137-.296-.063-.599-.104-.902-.146-.141-.02-.28-.049-.422-.064A13.014 13.014 0 0 0 47 34c-7.168 0-13 5.832-13 13 0 .46.026.915.073 1.363.015.144.045.284.065.426.042.301.083.603.145.897.038.182.093.358.139.538.063.247.123.495.201.736.065.203.145.399.219.598.078.208.153.417.242.62.092.211.197.417.301.623.09.181.179.361.277.537.117.208.244.41.372.611.105.165.21.33.323.49.135.193.277.379.423.565a12.957 12.957 0 0 0 1.34 1.462c.086.082.164.173.255.253zM47 58c-2.226 0-4.296-.669-6.029-1.81-.366-.24-.713-.5-1.044-.777-.06-.051-.116-.107-.175-.159a11.007 11.007 0 0 1-1.006-1.007c-.18-.205-.351-.417-.515-.633-.089-.118-.181-.233-.265-.354a10.723 10.723 0 0 1-.569-.91l-.133-.246a10.654 10.654 0 0 1-.451-.969c-.052-.129-.096-.262-.144-.393a11.122 11.122 0 0 1-.367-1.225c-.067-.284-.12-.572-.164-.863-.019-.127-.044-.254-.059-.383A11.162 11.162 0 0 1 36 47c0-6.065 4.935-11 11-11 .428 0 .852.031 1.271.08.129.015.255.039.383.059a10.826 10.826 0 0 1 1.288.274c.27.075.536.162.799.257.132.048.265.092.394.145a10.972 10.972 0 0 1 2.124 1.152c.122.084.237.176.355.266.217.164.429.334.633.515.109.096.217.193.322.292.238.227.466.465.685.714.052.06.108.115.159.175.277.33.536.677.776 1.042A10.92 10.92 0 0 1 58 47c0 6.065-4.935 11-11 11z"/></symbol></svg>